<svg xmlns="http://www.w3.org/2000/svg" viewBox="0 0 512 512">
  <rect width="512" height="512" fill="#ffffff"/>
  <path d="M256 224c-35.3 0-64-28.7-64-64s28.7-64 64-64 64 28.7 64 64-28.7 64-64 64zm-112 0c-35.3 0-64-28.7-64-64s28.7-64 64-64 64 28.7 64 64-28.7 64-64 64zm224 0c-35.3 0-64-28.7-64-64s28.7-64 64-64 64 28.7 64 64-28.7 64-64 64zM144 320c0-61.9 50.1-112 112-112s112 50.1 112 112c0 31.8-13.3 60.5-34.6 80.8-19.1 18.2-44.5 29.2-72.4 29.2h-10c-27.9 0-53.3-11-72.4-29.2C157.3 380.5 144 351.8 144 320z" fill="#0284c7"/>
</svg>
